<?xml version="1.0" encoding="UTF-8"?><svg id="Win" xmlns="http://www.w3.org/2000/svg" width="875" height="890" xmlns:xlink="http://www.w3.org/1999/xlink" viewBox="0 0 875 890"><defs><style>.cls-1{fill:url(#linear-gradient-2);}.cls-2{fill:#e6a9ab;}.cls-3{fill:#4d4d4d;}.cls-4{filter:url(#AI_GaussianBlur_4);}.cls-5{fill:#f7931e;}.cls-6{fill:url(#radial-gradient);}.cls-7{fill:#42210b;}.cls-8{fill:url(#linear-gradient);}.cls-9{filter:url(#AI_GaussianBlur_4-2);}.cls-10{fill:#f2f2f2;}.cls-11{fill:#c3b3d7;}</style><radialGradient id="radial-gradient" cx="437.93" cy="534.24" fx="437.93" fy="534.24" r="250.04" gradientUnits="userSpaceOnUse"><stop offset=".56" stop-color="#b3b3b3"/><stop offset="1" stop-color="#7b7b7b"/></radialGradient><filter id="AI_GaussianBlur_4"><feGaussianBlur stdDeviation="4"/></filter><filter id="AI_GaussianBlur_4-2"><feGaussianBlur stdDeviation="4"/></filter><linearGradient id="linear-gradient" x1="424.31" y1="-42.82" x2="439.72" y2="978.36" gradientUnits="userSpaceOnUse"><stop offset=".3" stop-color="#5a4eb8"/><stop offset=".55" stop-color="#a87abc"/></linearGradient><linearGradient id="linear-gradient-2" x1="419.72" y1="-42.75" x2="435.14" y2="978.43" xlink:href="#linear-gradient"/></defs><g><path class="cls-5" d="M558.75,532.72l.18,16.5c.08,7.68,5.73,13.88,12.72,13.97l15.03,.19-15.03,.19c-6.99,.09-12.64,6.29-12.72,13.97l-.18,16.5-.18-16.5c-.08-7.68-5.73-13.88-12.72-13.97l-15.03-.19,15.03-.19c6.99-.09,12.64-6.29,12.72-13.97l.18-16.5Z"/><path class="cls-5" d="M579.47,542.72l-11.09,11.13c-5.16,5.18-5.61,13.94-1.02,19.72l9.88,12.44-10.14-12.18c-4.72-5.67-12.69-6.16-17.96-1.12l-11.33,10.84,11.09-11.13c5.16-5.18,5.61-13.94,1.02-19.72l-9.88-12.44,10.14,12.18c4.72,5.67,12.69,6.16,17.96,1.12l11.33-10.84Z"/></g><path class="cls-11" d="M162.29,434.26v-.59c-.01-.13,0-.24,0-.35l.03,.94h-.03Z"/><g><path class="cls-11" d="M874.21,790.78c0,32.9-31.78,59.57-70.97,59.57-14.04,0-27.14-3.42-38.16-9.33-1.35,2.96-2.96,5.79-4.82,8.49-12.28,17.81-35.22,29.78-61.49,29.78-28.68,0-53.37-14.26-64.57-34.8-9.26,23.86-35.97,41.09-67.49,41.09-28.73,0-53.45-14.31-64.64-34.92-10.31,22.19-36.03,37.91-66.13,37.91-27.93,0-52.1-13.55-63.67-33.23-12.1,18.31-35.38,30.71-62.11,30.71-30.88,0-57.15-16.54-66.9-39.64-12.99,13.45-32.85,22.04-55.1,22.04-25.75,0-48.27-11.5-60.71-28.7-2.69-3.72-4.92-7.72-6.59-11.92-12.74,10.26-30.05,16.56-49.09,16.56-39.2,0-70.99-26.66-70.99-59.57,0-14.55,6.23-27.88,16.55-38.22,2.65-2.65,5.57-5.12,8.73-7.34,1.77-1.08,3.48-2.03,4.84-2.81,1.67-.96,3.3-1.95,4.88-2.97,33.75-21.71,50.6-58.54,80.09-122.98,0,0,32.81-73.1,41.22-156.45,.58-5.71,.85-9.95,1.07-12.85,.53-6.84,.89-13.26,1.14-19.18,.19,4.44,.38,8.87,.57,13.31v-1.06h2.44l-.03-.94c0,.11-.01,.23-.01,.35l-.18-5.66,554.51-2.55,.21,21.7c.23,2.91,.49,7.14,1.07,12.85,8.41,83.35,41.22,156.45,41.22,156.45,29.48,64.41,46.35,101.24,80.04,122.96,1.6,1.03,3.25,2.02,4.93,2.99,1.35,.78,3.06,1.71,4.82,2.79,3.17,2.24,6.11,4.7,8.77,7.37,10.33,10.34,16.54,23.66,16.54,38.21Z"/><path class="cls-11" d="M26.07,739.25c-3.16,2.23-6.07,4.69-8.73,7.34,1.8-2.77,5.37-5.3,8.73-7.34Z"/><path class="cls-11" d="M848.91,745.2c-1.76-1.08-3.47-2.01-4.82-2.79-1.69-.97-3.33-1.96-4.93-2.99,3.45,1.7,6.7,3.63,9.75,5.79Z"/><path class="cls-11" d="M857.67,752.57c-2.65-2.67-5.6-5.13-8.77-7.37,3.37,2.05,6.98,4.59,8.77,7.37Z"/><path class="cls-11" d="M35.79,733.48c-1.58,1.02-3.21,2.01-4.88,2.97-1.36,.78-3.07,1.72-4.84,2.81,3.03-2.14,6.29-4.08,9.72-5.77Z"/></g><path class="cls-6" d="M693.01,590.2c-19.49,59.83-78.6,89.93-112.93,104.83-.25,6.1-1.27,12.87-2.43,18.04-1.47,6.55-4.44,16.25-11.11,27.27-11.01,24.36-39.56,37.19-67.01,28.98-14.43-4.31-25.92-13.65-32.97-25.37-12.85,19.86-38.5,29.58-63.28,22.17-11.09-3.31-20.44-9.58-27.37-17.63-13.47,14.62-34.99,21.37-56.26,15.72-19.94-5.32-34.65-20.2-40.07-38.02l-.09,.18s-9.34-24.38-6.14-45.2c-27-17.18-50.12-39.63-67.06-67.72-5.99-9.94-46.76-79.98-22.85-158.74,34.86-114.84,187.36-182.7,312.58-149.63,131.46,34.7,231.4,179.58,196.97,285.13Z"/><path class="cls-10" d="M282.25,478.77c-53.53,17.09-69.81,93.78-55.83,107.66,1.29,1.28,6.99,6.16,15.21,7.57,5.78,.99,8.44-.48,16.35-1.26,2.63-.26,13.61-1.2,23.9,1.26,11.9,2.84,19.81,9.5,23.2,12.42,19.82,17.06,15.43,36.3,24.6,39.15,17.31,5.39,70.36-51.58,57.68-106.28-5.74-24.79-22.84-39.89-28.75-44.64-20.5-16.5-50.09-24.25-76.35-15.87Z"/><path class="cls-3" d="M308.02,446.76c.53-4.26-24.91-17.51-48.37-9.67-24.43,8.16-36.79,35.89-33.86,38.7,2.17,2.08,11.67-10.46,33.86-19.35,27.36-10.96,47.9-5.91,48.37-9.67Z"/><path class="cls-3" d="M308.29,488.35c-28.55-.64-47.11,16.88-51.57,21.38-28.19,28.47-27.8,77.54-15.09,84.27,2.67,1.41,4.4,.18,16.35,0,10.31-.15,18.65,.62,23.9,1.26,3.98,.74,10.02,2.36,16.35,6.29,1.7,1.05,6.62,4.26,12.58,11.32,10.7,12.69,9.17,19.38,13.84,21.38,10.81,4.63,41.45-21.71,49.05-56.6,1.4-6.42,8.04-36.89-12.58-62.89-2.43-3.07-21.02-25.7-52.82-26.41Z"/><ellipse class="cls-10" cx="292.94" cy="510.98" rx="16.16" ry="16.1" transform="translate(-236.71 253.33) rotate(-34.23)"/><ellipse class="cls-3" cx="421.93" cy="613.96" rx="63.09" ry="24.65" transform="translate(-287.17 842.34) rotate(-73.35)"/><ellipse class="cls-3" cx="456.76" cy="613.69" rx="24.78" ry="63.09" transform="translate(-103.29 92.55) rotate(-10.4)"/><circle class="cls-3" cx="444.03" cy="566.71" r="16.93"/><ellipse class="cls-10" cx="263.08" cy="550.08" rx="10.01" ry="9.78" transform="translate(-263.88 243.31) rotate(-34.23)"/><polygon class="cls-10" points="322.21 546.69 351.83 531.11 346.18 564.1 370.15 587.47 337.02 592.28 322.21 622.3 307.39 592.28 274.27 587.47 298.24 564.1 292.58 531.11 322.21 546.69"/><path class="cls-10" d="M607.54,479.96c53.53,17.09,69.81,93.78,55.83,107.66-1.29,1.28-6.99,6.16-15.21,7.57-5.78,.99-8.44-.48-16.35-1.26-2.63-.26-13.61-1.2-23.9,1.26-11.9,2.84-19.81,9.5-23.2,12.42-19.82,17.06-15.43,36.3-24.6,39.15-17.31,5.39-70.36-51.58-57.68-106.28,5.74-24.79,22.84-39.89,28.75-44.64,20.5-16.5,50.09-24.25,76.35-15.87Z"/><path class="cls-3" d="M581.5,489.54c28.55-.64,47.11,16.88,51.57,21.38,28.19,28.47,27.8,77.54,15.09,84.27-2.67,1.41-4.4,.18-16.35,0-10.31-.15-18.65,.62-23.9,1.26-3.98,.74-10.02,2.36-16.35,6.29-1.7,1.05-6.62,4.26-12.58,11.32-10.7,12.69-9.17,19.38-13.84,21.38-10.81,4.63-41.45-21.71-49.05-56.6-1.4-6.42-8.04-36.89,12.58-62.89,2.43-3.07,21.02-25.7,52.82-26.41Z"/><ellipse class="cls-10" cx="603.11" cy="510.9" rx="16.1" ry="16.16" transform="translate(-158.57 722.09) rotate(-55.77)"/><ellipse class="cls-10" cx="623.43" cy="546.46" rx="9.78" ry="10.01" transform="translate(-179.08 754.46) rotate(-55.77)"/><path class="cls-3" d="M565.91,446.39c-.53-4.26,24.91-17.51,48.37-9.67,24.43,8.16,36.79,35.89,33.86,38.7-2.17,2.08-11.67-10.46-33.86-19.35-27.36-10.96-47.9-5.91-48.37-9.67Z"/><g class="cls-4"><ellipse class="cls-2" cx="275.59" cy="619.78" rx="18.24" ry="30.19" transform="translate(-394.2 726.84) rotate(-75.11)"/></g><g><circle class="cls-7" cx="285.97" cy="615.38" r="4.84"/><circle class="cls-7" cx="266.51" cy="611" r="4.84"/><circle class="cls-7" cx="272.95" cy="630.49" r="4.84"/></g><g class="cls-9"><ellipse class="cls-2" cx="612.66" cy="622.3" rx="30.19" ry="18.24" transform="translate(-145.42 188.81) rotate(-15.69)"/></g><g><circle class="cls-7" cx="612.23" cy="614.94" r="4.84"/><circle class="cls-7" cx="603.56" cy="630.07" r="4.84"/><circle class="cls-7" cx="622.86" cy="628.76" r="4.84"/></g><polygon class="cls-10" points="571.74 546.42 603.08 534.66 593.36 566.69 614.23 592.86 580.76 593.5 562.32 621.44 551.36 589.81 519.09 580.9 545.79 560.71 544.29 527.27 571.74 546.42"/><g><polygon class="cls-8" points="443.5 1.43 159.59 419.17 702.94 416.66 443.5 1.43"/><path class="cls-1" d="M82.75,423.34c-.23,7.95,184.13,22.41,344.59,22.27,159.71-.14,343.67-14.79,343.43-22.73-.47-15.33-687.57-14.87-688.01,.46Z"/></g></svg>