<?xml version="1.0" encoding="UTF-8"?><svg id="Win" xmlns="http://www.w3.org/2000/svg" width="590" height="791.8" xmlns:xlink="http://www.w3.org/1999/xlink" viewBox="0 0 590 791.8"><defs><style>.cls-1{fill:url(#linear-gradient-2);}.cls-2{fill:#bf70b3;}.cls-3{fill:#4d4d4d;}.cls-4{fill:#333;}.cls-5{fill:#918589;}.cls-6{fill:#999;}.cls-7{fill:url(#linear-gradient-3);}.cls-8{fill:url(#linear-gradient);}.cls-9{fill:#fbb03b;}.cls-10{fill:#c36107;}.cls-11{fill:url(#linear-gradient-4);}.cls-12{fill:#f2f2f2;}.cls-13{fill:#fdd089;}</style><linearGradient id="linear-gradient" x1="1706.26" y1="5322.05" x2="1849.45" y2="5322.05" gradientTransform="translate(4010.93 4453.23) rotate(-57.66) scale(1 -1)" gradientUnits="userSpaceOnUse"><stop offset="0" stop-color="#333"/><stop offset=".58" stop-color="#b3b3b3"/><stop offset=".77" stop-color="#e6e6e6"/></linearGradient><linearGradient id="linear-gradient-2" x1="-12866.78" y1="5458.98" x2="-12730.01" y2="5458.98" gradientTransform="translate(-2179.77 14007.41) rotate(123.46) scale(1.04 1.01) skewX(2.21)" gradientUnits="userSpaceOnUse"><stop offset=".32" stop-color="#1a1a1a"/><stop offset=".58" stop-color="#333"/></linearGradient><linearGradient id="linear-gradient-3" x1="591.4" y1="7124.72" x2="731.76" y2="7124.72" gradientTransform="translate(-5682.47 4253.38) rotate(-120.28)" xlink:href="#linear-gradient"/><linearGradient id="linear-gradient-4" x1="-11822.67" y1="7222.79" x2="-11685.44" y2="7222.79" gradientTransform="translate(160.4 14024.15) rotate(58.6) scale(1.04 -1.01) skewX(2.21)" xlink:href="#linear-gradient-2"/></defs><path class="cls-13" d="M72.31,274.77c3.87-20.69,13.8-71.22,57.72-114.83,57.92-57.51,131.31-60.86,151.44-61.02,66.27-.53,112.8,29.12,133.17,42.5,19.35,12.7,75.76,51.26,98.3,123.45,19.37,62.05,9.86,136.68-16.16,145.48-8.62,2.92-13.77-3.19-36.09-3.05-22.26,.14-38.39,6.34-46.77,9.24-27.09,9.36-85.64,23.07-137.53,19.64-33.18-2.19-90.2-13.15-120.86-30.82-5.81-3.35-21-12.89-41.99-13.65-13.98-.51-17.09,3.37-23.36,1.37-22.25-7.07-26.92-69.92-17.86-118.3Z"/><path class="cls-10" d="M230.22,132.3c4.89,35.69,15.23,47.21,24.63,50.44,14.68,5.03,30.71-7.26,35.69-1.01,4.9,6.13-9.9,19.12-9.83,44.28,.02,6.68,.05,18.13,6.58,21.83,8.33,4.73,17.88-8.44,30.88-4.82,11.98,3.34,11.83,16.76,20.47,17.47,9.79,.81,12.52-16.23,34.04-36.91,14.87-14.29,20.78-13.09,23.44-21.63,5.49-17.61-13.9-41.24-31.36-51.19,0,0-6-10.74-40.69-9.83h0s12.2-.58,16.5-8.78c2.19-4.18,1.36-8.47,.85-11.33-.23-1.26-2.25-11.65-10.94-18.18-6.41-1.73-13.82-3.33-22.12-4.42-8.11-1.06-15.53-1.43-22.05-1.42-18.69,11.83-37.39,23.66-56.08,35.49Z"/><g><path class="cls-8" d="M469.39,22.09c-8.02,20.84-16.04,41.67-24.06,62.51-22.17,14.66-44.34,29.33-66.51,43.99,33.06,22.73,66.13,45.45,99.19,68.18,12.33-23.07,28.27-56.06,29.8-76.24,.05-.63,.09-1.32,.09-1.32,.38-5.71,1.15-23.12-3.09-40.77-3.58-14.89-8.81-24.61-13.59-33.49-4.26-7.91-7.51-12.58-13.34-17.36-3.24-2.65-6.29-4.4-8.49-5.51Z"/><path class="cls-1" d="M348.92,112.36c18.92,11.44,37.83,22.87,56.75,34.31,16.78-17.49,35.65-41.33,51.11-72.38,4.88-9.79,8.91-19.29,12.26-28.33,1.11-3.01,2.27-7.42,2.64-13.1,.24-3.7,.03-6.8-.22-8.97-.36-.99-.72-1.98-1.08-2.97-.39-.69-1.02-1.55-2.05-1.95,0,0-1.25-.36-3.05,.16-7.56,2.17-73.85,64.11-73.85,64.11-9.07,7.56-23.01,18.13-42.5,29.12Z"/></g><g><path class="cls-4" d="M448.86,128.12c-1.48,2.71-7.3,12.56-19.83,17.41-13.35,5.17-24.99,1.06-27.71,.01-.59-1.61-1.18-3.23-1.77-4.84,2.04,.96,14.47,6.56,28.55,.86,12.7-5.15,17.91-15.92,18.99-18.29,.59,1.61,1.18,3.23,1.77,4.84Z"/><path class="cls-4" d="M436.95,120.3c-.51,2.78-2.71,12.92-11.99,19.36-9.89,6.86-20.9,4.71-23.5,4.13-.95-1.43-1.9-2.87-2.84-4.3,2,.6,14.09,4.04,24.45-3.43,9.35-6.74,10.78-17.67,11.04-20.06,.95,1.43,1.9,2.87,2.85,4.3Z"/><path class="cls-4" d="M443.14,150.36c-2.17,1.8-10.37,8.17-21.62,7.15-11.99-1.08-19.05-9.8-20.67-11.91,.19-1.71,.38-3.41,.58-5.12,1.14,1.74,8.22,12.14,20.95,13.06,11.5,.83,19.6-6.63,21.34-8.3-.19,1.71-.38,3.41-.58,5.12Z"/></g><ellipse class="cls-4" cx="46.75" cy="325.21" rx="45.5" ry="28" transform="translate(-8.58 1.35) rotate(-1.51)"/><ellipse class="cls-4" cx="69.04" cy="373.64" rx="45.5" ry="28" transform="translate(-107.39 37.12) rotate(-17.2)"/><g><path class="cls-7" d="M140.18,6.71c7.31,21.45,14.61,42.9,21.92,64.36,21.66,15.73,43.32,31.47,64.98,47.2-37.22,20.36-74.44,40.72-111.65,61.07-3.79-9.42-15.91-41.07-16.99-74.23-.18-5.46-.62-24.09,4.42-42.58,4.08-14.97,9.64-24.63,14.72-33.45,4.54-7.88,7.93-12.48,13.93-17.1,3.32-2.56,6.43-4.22,8.68-5.26Z"/><path class="cls-11" d="M257.52,102.95c-19.41,9.55-38.82,19.1-58.23,28.65-18.19-16.3-44.8-44.47-56.4-81.23-3.22-10.19-4.53-19.68-4.53-19.68-1.25-9.64-.86-17.65-.21-23.34,1.19-1.3,2.39-2.12,3.47-2.65,0,0,1.29-.59,2.78-.85,5.19-.92,47.37,45.8,71.63,67.9,8.81,8.03,22.38,19.28,41.48,31.19Z"/></g><g><path class="cls-4" d="M151.77,111.33c1.16,2.99,5.77,13.88,17.67,20.22,12.68,6.75,24.76,3.6,27.59,2.78,.78-1.63,1.56-3.26,2.34-4.89-2.15,.8-15.19,5.43-28.53-1.95-12.04-6.66-15.94-18.46-16.73-21.05-.78,1.63-1.56,3.26-2.34,4.89Z"/><path class="cls-4" d="M164.57,104.33c.18,2.96,1.16,13.81,9.63,21.47,9.03,8.17,20.25,7.02,22.91,6.67,1.12-1.41,2.23-2.81,3.35-4.22-2.06,.43-14.51,2.82-23.94-6.04-8.51-7.99-8.63-19.58-8.6-22.11-1.12,1.41-2.23,2.81-3.35,4.22Z"/><path class="cls-4" d="M154.82,135.2c1.95,2.1,9.36,9.59,20.68,9.65,12.07,.06,20.14-8.36,22.01-10.41,.01-1.81,.03-3.61,.04-5.42-1.35,1.71-9.63,11.89-22.43,11.58-11.55-.28-18.73-8.9-20.26-10.83-.01,1.81-.03,3.61-.04,5.42Z"/></g><path class="cls-10" d="M92.94,212.97c-4.55,6.59-13.18,21.08-13.79,40.75-1.15,37.54,27.94,61.11,33.98,65.74,20.76,15.91,32.19-1.14,74.4,14.04,8.88,3.19,17.53,7.11,29.15,5.23,11.71-1.9,26.79-9.75,29.43-21.79,2.69-12.24-9.92-17.6-7.79-29.8,2.78-15.88,25.69-15.68,28.25-28.76,3.95-20.18-46.66-40.65-41.6-59.92,2.11-8.04,12.3-9.69,11.63-14.31-1.08-7.38-28-9.86-57.3-10.49-28.79,13.1-57.57,26.21-86.36,39.31Z"/><path class="cls-4" d="M92.5,212.58c.72,3.44,.79,24.8,14.61,33.23,6.01,3.66,12.03,3.46,14.16,3.41,22.11-.54,35.44-27.29,36.25-28.97,1.96-4.46,4.7-11.04,7.5-19.2,4.55-13.27,4.78-17.63,8.49-19.23,5.98-2.58,10.12,6.89,23.57,9.37,6.94,1.28,15.97,.41,29.54-5.78,32.62-14.87-1.98-35.35,12.66-50.05,14.64-14.7,22.06,1.11,36.76-10.28,14.7-11.39,10.02-28.09,10.02-28.09-56.08-5.43-81.68,8.21-94.64,22.15-8.96,9.63-8.24,15.48-20.86,26.74-21.84,19.48-39.43,15.75-58.13,33.55-6.14,5.85-14.38,15.89-19.92,33.16Z"/><path class="cls-4" d="M110.32,285.55c-4.04,14.93-26.97,21.71-51.23,15.15-24.26-6.56-40.65-23.98-36.61-38.91,4.04-14.93,26.97-21.71,51.23-15.15,24.26,6.56,40.65,23.98,36.61,38.91Z"/><path class="cls-4" d="M180.72,416.7c9.67,1.73,18.33-1.11,20.83-6.55,3.09-6.71-4.03-15.5-7.53-19.81-7.28-8.97-11.62-7.19-14.34-12.63-6.12-12.22,13.99-24.8,8.91-41.25-2.43-7.87-10.17-15.15-18.34-16.91-4.17-.9-8.25-.35-9.3-.13-8.45,1.75-11.57,8.62-29.52,6.67-23.2-2.52-20.73-48.05-20.73-48.05l-51.61,22.66c10.34,31.46,20.68,62.92,31.03,94.39,6.8-2.04,19.94-4.96,35.96-1.95,11.88,2.23,20.81,6.88,26.28,10.31,3.57,2.49,7.97,5.18,13.21,7.65,5.58,2.64,10.75,4.4,15.15,5.6Z"/><ellipse class="cls-9" cx="190.45" cy="243.13" rx="36.07" ry="58.39" transform="translate(-113.82 190.15) rotate(-42.05)"/><ellipse class="cls-3" cx="189.39" cy="242.76" rx="31.2" ry="38.5" transform="translate(-6.35 5.09) rotate(-1.51)"/><ellipse class="cls-12" cx="185.89" cy="215.28" rx="5.64" ry="5.62" transform="translate(-90.75 149.16) rotate(-35.75)"/><ellipse class="cls-12" cx="172.01" cy="228.04" rx="3.5" ry="3.41" transform="translate(-100.82 143.46) rotate(-35.75)"/><ellipse class="cls-9" cx="294.69" cy="185.43" rx="32.96" ry="58.39" transform="translate(103.34 476.31) rotate(-88.84)"/><ellipse class="cls-3" cx="294.67" cy="184.95" rx="31.2" ry="32.5" transform="translate(-4.78 7.85) rotate(-1.51)"/><ellipse class="cls-12" cx="292.14" cy="160.25" rx="5.64" ry="5.62" transform="translate(-38.58 200.87) rotate(-35.75)"/><ellipse class="cls-12" cx="278.26" cy="173.01" rx="3.5" ry="3.41" transform="translate(-48.65 195.16) rotate(-35.75)"/><path class="cls-6" d="M238.79,322.13c-2.29,1.54-5.25,3.25-8.86,4.74-2.55,1.05-5.79,2.15-9.62,2.89-2.03,.84-4.39-.14-5.22-2.17-.84-2.03,.14-4.38,2.17-5.22,2.7-.53,6.01-1.4,9.62-2.89,2.55-1.05,5.61-2.56,8.86-4.74,2.03-.84,4.39,.14,5.22,2.17s-.14,4.38-2.17,5.22Z"/><path class="cls-6" d="M233.6,312.34c-2.75-.18-6.14-.62-9.91-1.64-2.66-.72-5.89-1.83-9.39-3.58-2.12-.57-3.39-2.79-2.82-4.91,.57-2.12,2.78-3.39,4.91-2.82,2.47,1.23,5.62,2.55,9.39,3.58,2.66,.72,6.01,1.39,9.91,1.64,2.12,.57,3.39,2.79,2.82,4.91-.57,2.12-2.78,3.39-4.91,2.82Z"/><path class="cls-5" d="M289.62,335.8c-1.02,3.35-2.34,7.53-5.68,12.15-1.71,2.37-5.98,8.11-13.7,11.37-2.12,.9-14.08,5.94-24.02-.37-8.26-5.24-10.9-15.64-9.5-18.76,.21-.46,.77-1.71,1.95-2.05,1.4-.41,2.79,.73,3.03,.92,1.55,1.26,1.92,3.16,2.1,3.95,.27,1.45,1.29,5.9,5.24,8.86,5.27,3.96,11.71,2.25,14.05,1.63,6.24-1.66,9.82-5.97,11.78-8.31,.75-.9,4.63-5.64,6.65-13.18,2.05-7.61,.69-12.41,4.16-14.63,1.09-.7,3.03-1.38,4.44-.6,3.71,2.06,1.12,13.72-.5,19.02Z"/><path class="cls-10" d="M491.47,378.05c27.08,4.82,50.14-2.72,50.14-2.72l-5.56-3.55-15.76-10.06c8.43-41.43-13.83-79.82-46.29-89.83-1.64-.51-5.58-1.64-10.85-2.22-27.12-2.97-48.45,12.86-56.46,19.55-17.71,8.39-31.72,13.8-41.09,18.99-7.59,4.21-9.96,6.56-9.77,7.88,.19,1.26,1.05,2.46,2.74,3.58,3.58,2.38,4.22,4.89,4.2,5.46-.14,2.89-8.53,2.76-17.19,8.17-2.47,1.54-23.24-47.29-26.13-42.32-2.06,3.54-5.51,19.14-1,38.04,3.91,16.36,15.43,36.31,19.05,39.51,5.31,4.7,13.5,5.23,19.07,2.5,6.79-3.33,9.46-11.39,9.71-11.26,.34,.19-10.6,12.76-7.5,19.2,5.92,12.29,60.78-2.18,85.71,3.38,1.12,.25,8.11,1.65,17.72,3.6,3.54,.72,7.96,1.49,14.08,2.3,29.76,3.95,34.73-1.5,38.88-2.83,9.75-3.13,7.79-20.04,7.79-20.04,4.26-5.57,13.35-19.06,14.52-38.15,.48-7.87,2.02-33.11-17.29-48.56-21.07-16.87-48.49-7.3-50.19-6.68"/><path class="cls-4" d="M590.84,345.94c-1.33,15.15-22.02,25.73-46.49,23.99,14.83,9.83,22.77,23.82,18.5,35.08-5.48,14.47-28.97,18.98-52.47,10.09-4.09-1.05-9.81-2.4-16.69-3.67,0,0-20.29-3.73-38.12-3.99-12.63-.19-32.11,5.83-70.55,17.87,0,0-21.12,6.62-48.77,9.29-6.54,.63-15.57,1.23-23.12-4.39-.78-.58-7.6-5.8-9.27-14.57-1.68-8.79,2.37-18.18,9.18-25.39,4.38-4.64,9.89-8.37,15.76-10.47,15.9-5.68,30.38,2.1,33.11,3.64,5.81-5,16.11-12.3,30.61-15.32,15.32-3.2,30.31,1.98,37.99,4.32,11.84,3.6,15.29,7.71,24.33,7.04,10.41-.77,17.59-6.68,19.78-8.53,7.53-6.35,5.88-11.49,11.47-20.31,11.41-18.01,29.49-16.66,30.3-26.81,.52-6.47-6.82-7.26-15.55-20.6-10.95-16.73-8.7-29.68-15.84-31.59-3.05-.82-8.15,.29-16.73,10.45-4.66,4.12-12.24,9.72-22.67,12.6-13.67,3.78-18.72-.83-28.99,.77-25.96,4.04-27.19,38.72-50.9,42.36-17.72,2.72-32.83-14.22-34.44-16.1-16.1-18.78-10.94-44.61-10.27-47.75,10.17-47.1,76.81-69.97,71.89-80.93-2.33-5.17-17.02-.83-22.26-9.42-4.71-7.72,2.64-16.43-2.58-21.94-3.8-4.02-9.02-.8-20.23-4.97,0,0-7.09-2.18-11.74-6.5-18.09-16.84-5.83-47.65-5.83-47.65,0,0,16.17,4.24,19.97,5.33,17.29,4.97,24.43,15.43,51.37,35.9,2.87,2.18,11.08,7.88,27.52,19.28,39.9,27.68,42.18,27.91,48.91,33.72,12.59,10.89,27.82,30.19,35.9,66.76-.06,.27-.14,.63-.25,1.07,3.1-1.11,6.38-2.03,9.79-2.73,24.62-5.06,47.1,3.13,50.21,18.27,2.65,12.95-9.71,26.81-28.73,33.7,1.01,.04,2.03,.12,3.06,.21,25.03,2.21,44.22,16.49,42.86,31.89Z"/><ellipse class="cls-9" cx="384.08" cy="253.49" rx="58.39" ry="35.05" transform="translate(-68.03 339.31) rotate(-44.17)"/><ellipse class="cls-3" cx="386.63" cy="252.05" rx="28.58" ry="37" transform="translate(-6.52 10.3) rotate(-1.51)"/><ellipse class="cls-12" cx="383.42" cy="227.17" rx="5.17" ry="5.15" transform="translate(-30.16 393.19) rotate(-52.52)"/><ellipse class="cls-12" cx="370.72" cy="238.88" rx="3.2" ry="3.13" transform="translate(-68.43 279.46) rotate(-38.08)"/><path class="cls-6" d="M345.26,328.19c2.37,1.41,5.41,2.97,9.1,4.27,2.6,.92,5.89,1.84,9.76,2.38,2.07,.73,4.37-.37,5.1-2.44,.73-2.08-.37-4.37-2.44-5.1-2.73-.38-6.08-1.08-9.76-2.38-2.6-.92-5.74-2.26-9.1-4.27-2.07-.73-4.37,.37-5.1,2.44-.73,2.08,.37,4.37,2.44,5.1Z"/><path class="cls-6" d="M349.93,318.13c2.74-.32,6.1-.95,9.81-2.17,2.62-.86,5.79-2.14,9.19-4.07,2.09-.68,3.24-2.96,2.55-5.05s-2.96-3.24-5.05-2.55c-2.4,1.36-5.47,2.85-9.19,4.07-2.62,.86-5.93,1.71-9.81,2.17-2.09,.68-3.24,2.96-2.55,5.05s2.96,3.24,5.05,2.55Z"/><path class="cls-5" d="M287.55,335.44c1.2,3.29,2.73,7.4,6.31,11.84,1.84,2.27,6.4,7.78,14.29,10.63,2.17,.78,14.38,5.18,23.97-1.63,7.97-5.67,10.06-16.2,8.49-19.23-.23-.44-.86-1.67-2.05-1.95-1.42-.33-2.74,.87-2.97,1.08-1.48,1.34-1.75,3.26-1.89,4.05-.19,1.46-.98,5.96-4.76,9.13-5.05,4.24-11.58,2.87-13.94,2.37-6.32-1.33-10.12-5.44-12.21-7.68-.8-.86-4.92-5.39-7.34-12.81-2.45-7.5-1.34-12.36-4.93-14.39-1.13-.64-3.1-1.22-4.46-.36-3.6,2.25-.39,13.76,1.5,18.97Z"/><polygon class="cls-2" points="287.88 322.62 263.1 308.49 311.87 307.2 287.88 322.62"/></svg>