<?xml version="1.0" encoding="UTF-8"?><svg id="Færdige_produkter" xmlns="http://www.w3.org/2000/svg" width="588" height="588" xmlns:xlink="http://www.w3.org/1999/xlink" viewBox="0 0 588 588"><defs><style>.cls-1{fill:url(#linear-gradient-2);}.cls-2{fill:#4d4d4d;}.cls-3{fill:#333;}.cls-4{fill:url(#radial-gradient);}.cls-5{fill:#918589;}.cls-6{fill:#ffe5ee;}.cls-7{fill:url(#radial-gradient-2);}.cls-8{fill:url(#radial-gradient-3);}.cls-9{fill:#999;}.cls-10{fill:url(#linear-gradient-3);}.cls-11{fill:#e5ccff;}.cls-12{fill:url(#linear-gradient);}.cls-13{fill:url(#linear-gradient-4);}.cls-14{fill:#f2f2f2;}</style><linearGradient id="linear-gradient" x1="-1995.05" y1="6862.09" x2="-1840.7" y2="6862.09" gradientTransform="translate(-6674.75 2305.58) rotate(-123.25)" gradientUnits="userSpaceOnUse"><stop offset="0" stop-color="#333"/><stop offset=".58" stop-color="#b3b3b3"/><stop offset=".77" stop-color="#e6e6e6"/></linearGradient><linearGradient id="linear-gradient-2" x1="-11434.07" y1="6926.15" x2="-11257.74" y2="6926.15" gradientTransform="translate(604.57 13406.4) rotate(56.75) scale(1 -1)" gradientUnits="userSpaceOnUse"><stop offset=".32" stop-color="#1a1a1a"/><stop offset=".58" stop-color="#333"/></linearGradient><radialGradient id="radial-gradient" cx="163.62" cy="4874.36" fx="163.62" fy="4874.36" r="61.97" gradientTransform="translate(0 5254.86) scale(1 -1)" gradientUnits="userSpaceOnUse"><stop offset=".26" stop-color="#fef8a6"/><stop offset="1" stop-color="#fdd089"/></radialGradient><radialGradient id="radial-gradient-2" cx="374.53" cy="4876.13" fx="374.53" fy="4876.13" r="61.97" xlink:href="#radial-gradient"/><radialGradient id="radial-gradient-3" cx="285.56" cy="5012.07" fx="285.56" fy="5012.07" r="61.97" xlink:href="#radial-gradient"/><linearGradient id="linear-gradient-3" x1="1786.83" y1="1093.58" x2="1941.45" y2="1093.58" gradientTransform="translate(391.57 2305.58) rotate(-56.75) scale(1 -1)" xlink:href="#linear-gradient"/><linearGradient id="linear-gradient-4" x1="-15216.22" y1="1158.24" x2="-15039.89" y2="1158.24" gradientTransform="translate(-6887.75 13406.4) rotate(123.25)" xlink:href="#linear-gradient-2"/></defs><rect class="cls-11" x="1.52" y="-1.23" width="589" height="589"/><g><path class="cls-3" d="M530.52,336.77c1.03-21.48,.75-90.52-49-140-46.88-46.62-109.02-47.35-165-48-42.92-.5-95.01-1.11-148,32-11.88,7.42-95.19,61.43-100.95,160.93-1.39,24.06-.35,87.05,44.95,134.07,52.44,54.43,128.15,50.04,183.02,46.86,44.74-2.59,149.56-8.67,203.98-88.86,27.79-40.96,30.35-83.46,31-97Z"/><g><path class="cls-12" d="M126.15,47.07c6.87,22.5,13.73,45.01,20.6,67.51,21.92,17.07,43.83,34.15,65.74,51.22-37.99,27.99-75.98,55.97-113.97,83.96-8.22-22.97-27.24-86.24-.55-153.71,7.96-20.14,18.31-36.38,28.18-48.99Z"/><path class="cls-1" d="M248.52,177.56c-20.8,2.25-41.59,4.49-62.39,6.74-17.47-17.59-43.04-48.56-54.2-91.77-4.41-17.05-5.69-32.59-5.51-45.76,19.89,23.86,41.65,48.52,65.44,73.7,19.04,20.15,37.99,39.17,56.67,57.09Z"/></g><circle class="cls-4" cx="163.62" cy="380.51" r="61.97"/><circle class="cls-7" cx="374.53" cy="378.74" r="61.97"/><circle class="cls-8" cx="285.56" cy="242.8" r="61.97"/><ellipse class="cls-2" cx="290.02" cy="237.27" rx="49.5" ry="50.5"/><ellipse class="cls-14" cx="285.61" cy="204.13" rx="8.95" ry="8.92" transform="translate(-65.35 196.05) rotate(-34.23)"/><ellipse class="cls-14" cx="263.08" cy="223.78" rx="5.55" ry="5.41" transform="translate(-80.32 186.77) rotate(-34.23)"/><polygon class="cls-14" points="293.83 232.91 310.23 224.28 307.1 242.55 320.38 255.49 302.03 258.16 293.83 274.78 285.62 258.16 267.27 255.49 280.55 242.55 277.42 224.28 293.83 232.91"/><ellipse class="cls-2" cx="378.71" cy="371.79" rx="49.5" ry="50.5"/><ellipse class="cls-14" cx="374.31" cy="338.65" rx="8.95" ry="8.92" transform="translate(-125.67 269.25) rotate(-34.23)"/><ellipse class="cls-14" cx="351.77" cy="358.3" rx="5.55" ry="5.41" transform="translate(-140.63 259.98) rotate(-34.23)"/><polygon class="cls-14" points="382.52 367.43 398.93 358.8 395.79 377.07 409.07 390.01 390.72 392.68 382.52 409.3 374.31 392.68 355.97 390.01 369.24 377.07 366.11 358.8 382.52 367.43"/><ellipse class="cls-2" cx="166.71" cy="371.79" rx="49.5" ry="50.5"/><ellipse class="cls-14" cx="162.31" cy="338.65" rx="8.95" ry="8.92" transform="translate(-162.4 149.98) rotate(-34.23)"/><ellipse class="cls-14" cx="139.77" cy="358.3" rx="5.55" ry="5.41" transform="translate(-177.36 140.71) rotate(-34.23)"/><polygon class="cls-14" points="170.52 367.43 186.93 358.8 183.79 377.07 197.07 390.01 178.72 392.68 170.52 409.3 162.31 392.68 143.97 390.01 157.24 377.07 154.11 358.8 170.52 367.43"/><g><path class="cls-10" d="M488.01,47.19c-6.87,22.5-13.73,45.01-20.6,67.51-21.92,17.07-43.83,34.15-65.74,51.22l114.85,84.85c8.2-23.55,26.58-87-.33-154.6-7.99-20.08-18.31-36.33-28.18-48.99Z"/><path class="cls-13" d="M365.64,177.67c20.8,2.25,41.59,4.49,62.39,6.74,17.47-17.59,43.04-48.56,54.2-91.77,4.41-17.05,5.69-32.59,5.51-45.76-19.89,23.86-41.65,48.52-65.44,73.7-19.04,20.15-37.99,39.17-56.67,57.09Z"/></g><polygon class="cls-6" points="264.48 432.55 250.97 417.77 277.99 417.77 264.48 432.55"/><g><path class="cls-5" d="M216.22,492.98c8.01,5.57,19.94,11.59,34.28,14.35-12.32-2.3-24.49-7.15-34.28-14.35Z"/><path class="cls-5" d="M269.09,508.81c1.47-.05,2.91-.14,4.33-.26-1.42,.14-2.42,.2-2.9,.22-1.11,.05-2.24,.07-3.37,.08,.64,0,1.29-.02,1.94-.04Z"/><path class="cls-5" d="M264.74,508.83c.81,.02,1.61,.02,2.42,.02-.81,0-1.62,0-2.42-.02Z"/><path class="cls-5" d="M283.83,506.94c20.06-4.48,33.77-15.68,39.56-21.1-11.7,13.05-28.08,18.68-39.56,21.1Z"/><path class="cls-5" d="M330.52,475.77c-1.6,2.93-3.41,5.6-5.4,8.03-.09,.01-.18,.02-.27,.02,.56-1.04,.57-2.35-.16-3.45l-16.08-24.12c-1.67-2.51-5.55-1.71-6.1,1.26l-5.27,28.5-64.92-.03c.35-.63,.49-1.39,.34-2.19l-5.27-28.5c-.54-2.97-4.42-3.76-6.09-1.25l-16.08,24.12c-.8,1.19-.72,2.63-.02,3.7-.02,.26,.07,.59,.27,.99-3.43-4.21-6.16-8.91-7.95-14.08-1.22-3.51-6.89-19.81,1-29,10.57-12.32,32.25,3.58,73.5,1,36.04-2.25,51.83-16.4,61.5-7,9.17,8.92,3.56,30.02-3,42Z"/><g><path class="cls-14" d="M324.85,483.82c.09,0,.18,0,.27-.02-.56,.7-1.14,1.38-1.73,2.04-5.79,5.42-19.5,16.62-39.56,21.1-.08,.02-.17,.04-.25,.05-3.82,.8-7.09,1.25-9.43,1.49-.24,.03-.48,.05-.73,.07-1.42,.12-2.86,.21-4.33,.26-1.47,.05-2.92,.06-4.35,.02-.55-.01-1.09-.02-1.63-.05-.25,0-.49,0-.73-.04-3.39-.17-6.82-.55-10.25-1.12-.55-.09-1.09-.19-1.63-.29-14.34-2.76-26.27-8.78-34.28-14.35-.07-.04-.13-.09-.19-.14-3.97-2.94-7.54-6.28-10.56-9.99-.2-.4-.29-.73-.27-.99-.7-1.07-.78-2.51,.02-3.7l16.08-24.12c1.67-2.51,5.55-1.72,6.09,1.25l5.27,28.5c.15,.8,0,1.56-.34,2.19l64.92,.03,5.27-28.5c.55-2.97,4.43-3.77,6.1-1.26l16.08,24.12c.73,1.1,.72,2.41,.16,3.45Z"/><path class="cls-14" d="M216.03,492.84c-5.85-4.08-9.58-7.91-10.56-9.99,3.02,3.71,6.59,7.05,10.56,9.99Z"/><path class="cls-14" d="M252.13,507.62c3.43,.57,6.86,.95,10.25,1.12-3.53-.16-6.95-.55-10.25-1.12Z"/><path class="cls-14" d="M283.58,506.99c-2.67,.6-5.46,1.06-8.35,1.37,2.22-.26,5.08-.69,8.35-1.37Z"/><path class="cls-14" d="M274.15,508.48c.36-.03,.72-.08,1.08-.12-.38,.04-.74,.08-1.08,.12Z"/><path class="cls-14" d="M325.52,483.77c-.51,.52-1.22,1.22-2.13,2.07,.59-.66,1.17-1.34,1.73-2.04,.13,0,.27-.02,.4-.03Z"/></g></g><path class="cls-9" d="M133.91,470.78c-2.06,1.83-4.75,3.94-8.13,5.91-2.38,1.39-5.44,2.92-9.14,4.18-1.89,1.11-4.36,.46-5.47-1.43-1.11-1.9-.47-4.36,1.43-5.47,2.61-.89,5.76-2.21,9.14-4.18,2.38-1.39,5.21-3.31,8.13-5.91,1.89-1.11,4.36-.46,5.47,1.43,1.11,1.9,.47,4.36-1.43,5.47Z"/><path class="cls-9" d="M126.83,461.13c-2.66,.74-6,1.43-9.9,1.71-2.75,.2-6.17,.22-10.05-.28-2.19,.16-4.12-1.51-4.28-3.7s1.51-4.12,3.7-4.28c2.73,.35,6.15,.56,10.05,.28,2.75-.2,6.14-.67,9.9-1.71,2.19-.16,4.12,1.51,4.28,3.7,.16,2.19-1.51,4.12-3.7,4.28Z"/><path class="cls-9" d="M442.38,460.37c2.33,1.47,5.33,3.11,8.98,4.51,2.57,.98,5.84,1.99,9.7,2.64,2.05,.78,4.38-.26,5.16-2.31s-.25-4.38-2.31-5.16c-2.72-.46-6.04-1.24-9.7-2.64-2.57-.98-5.68-2.41-8.98-4.51-2.05-.78-4.38,.26-5.16,2.31s.25,4.38,2.31,5.16Z"/><path class="cls-9" d="M447.31,450.44c2.74-.25,6.12-.79,9.87-1.91,2.64-.79,5.84-1.98,9.29-3.82,2.1-.63,3.32-2.88,2.69-4.98-.63-2.11-2.87-3.32-4.98-2.69-2.43,1.3-5.55,2.7-9.29,3.82-2.64,.79-5.97,1.55-9.87,1.91-2.1,.63-3.32,2.88-2.69,4.98,.63,2.11,2.87,3.32,4.98,2.69Z"/><path class="cls-9" d="M458,426.86c-1.54,2.29-3.63,4.99-6.42,7.73-1.96,1.93-4.55,4.17-7.82,6.31-1.56,1.54-4.12,1.52-5.66-.04-1.54-1.57-1.53-4.11,.04-5.66,2.31-1.51,5.04-3.56,7.82-6.31,1.96-1.93,4.23-4.49,6.42-7.73,1.56-1.54,4.12-1.52,5.66,.04s1.53,4.11-.04,5.66Z"/><path class="cls-9" d="M124.53,448.25c-2.63-.81-5.83-2.04-9.26-3.91-2.42-1.32-5.31-3.15-8.3-5.66-1.93-1.05-2.65-3.5-1.6-5.43,1.05-1.93,3.49-2.65,5.43-1.6,2.11,1.77,4.87,3.79,8.3,5.66,2.42,1.32,5.52,2.75,9.26,3.91,1.93,1.05,2.65,3.5,1.6,5.43-1.05,1.93-3.49,2.65-5.43,1.6Z"/></g></svg>