<?xml version="1.0" encoding="UTF-8"?><svg id="Færdige_produkter" xmlns="http://www.w3.org/2000/svg" width="590" height="590" xmlns:xlink="http://www.w3.org/1999/xlink" viewBox="0 0 590 590"><defs><style>.cls-1{fill:url(#linear-gradient-2);}.cls-2{fill:#4d4d4d;}.cls-3{fill:#333;}.cls-4{fill:url(#radial-gradient);}.cls-5{fill:#918589;}.cls-6{fill:#ffe5ee;}.cls-7{fill:url(#radial-gradient-2);}.cls-8{fill:url(#radial-gradient-3);}.cls-9{fill:#999;}.cls-10{fill:url(#linear-gradient-3);}.cls-11{fill:url(#linear-gradient);}.cls-12{fill:url(#linear-gradient-4);}.cls-13{fill:#f2f2f2;}</style><linearGradient id="linear-gradient" x1="-1994.05" y1="6863.09" x2="-1839.7" y2="6863.09" gradientTransform="translate(-6674.04 2307.97) rotate(-123.25)" gradientUnits="userSpaceOnUse"><stop offset="0" stop-color="#333"/><stop offset=".58" stop-color="#b3b3b3"/><stop offset=".77" stop-color="#e6e6e6"/></linearGradient><linearGradient id="linear-gradient-2" x1="-11433.07" y1="6927.15" x2="-11256.74" y2="6927.15" gradientTransform="translate(604.18 13407.11) rotate(56.75) scale(1 -1)" gradientUnits="userSpaceOnUse"><stop offset=".32" stop-color="#1a1a1a"/><stop offset=".58" stop-color="#333"/></linearGradient><radialGradient id="radial-gradient" cx="164.62" cy="4875.36" fx="164.62" fy="4875.36" r="61.97" gradientTransform="translate(0 5256.86) scale(1 -1)" gradientUnits="userSpaceOnUse"><stop offset=".26" stop-color="#fef8a6"/><stop offset="1" stop-color="#fdd089"/></radialGradient><radialGradient id="radial-gradient-2" cx="375.53" cy="4877.13" fx="375.53" fy="4877.13" r="61.97" xlink:href="#radial-gradient"/><radialGradient id="radial-gradient-3" cx="286.56" cy="5013.07" fx="286.56" fy="5013.07" r="61.97" xlink:href="#radial-gradient"/><linearGradient id="linear-gradient-3" x1="1787.83" y1="1094.58" x2="1942.45" y2="1094.58" gradientTransform="translate(392.86 2307.97) rotate(-56.75) scale(1 -1)" xlink:href="#linear-gradient"/><linearGradient id="linear-gradient-4" x1="-15215.22" y1="1159.24" x2="-15038.89" y2="1159.24" gradientTransform="translate(-6885.36 13407.11) rotate(123.25)" xlink:href="#linear-gradient-2"/></defs><path class="cls-3" d="m531.52,337.77c1.03-21.48.75-90.52-49-140-46.88-46.62-109.02-47.35-165-48-42.92-.5-95.01-1.11-148,32-11.88,7.42-95.19,61.43-100.95,160.93-1.39,24.06-.35,87.05,44.95,134.07,52.44,54.43,128.15,50.04,183.02,46.86,44.74-2.59,149.56-8.67,203.98-88.86,27.79-40.96,30.35-83.46,31-97Z"/><g><path class="cls-11" d="m127.15,48.07c6.87,22.5,13.73,45.01,20.6,67.51,21.92,17.07,43.83,34.15,65.74,51.22-37.99,27.99-75.98,55.97-113.97,83.96-8.22-22.97-27.24-86.24-.55-153.71,7.96-20.14,18.31-36.38,28.18-48.99Z"/><path class="cls-1" d="m249.52,178.56c-20.8,2.25-41.59,4.49-62.39,6.74-17.47-17.59-43.04-48.56-54.2-91.77-4.41-17.05-5.69-32.59-5.51-45.76,19.89,23.86,41.65,48.52,65.44,73.7,19.04,20.15,37.99,39.17,56.67,57.09Z"/></g><circle class="cls-4" cx="164.62" cy="381.51" r="61.97"/><circle class="cls-7" cx="375.53" cy="379.74" r="61.97"/><circle class="cls-8" cx="286.56" cy="243.8" r="61.97"/><ellipse class="cls-2" cx="291.02" cy="238.27" rx="49.5" ry="50.5"/><ellipse class="cls-13" cx="286.61" cy="205.13" rx="8.95" ry="8.92" transform="translate(-65.74 196.78) rotate(-34.23)"/><ellipse class="cls-13" cx="264.08" cy="224.78" rx="5.55" ry="5.41" transform="translate(-80.71 187.51) rotate(-34.23)"/><polygon class="cls-13" points="294.83 233.91 311.23 225.28 308.1 243.55 321.38 256.49 303.03 259.16 294.83 275.78 286.62 259.16 268.27 256.49 281.55 243.55 278.42 225.28 294.83 233.91"/><ellipse class="cls-2" cx="379.71" cy="372.79" rx="49.5" ry="50.5"/><ellipse class="cls-13" cx="375.31" cy="339.65" rx="8.95" ry="8.92" transform="translate(-126.06 269.99) rotate(-34.23)"/><ellipse class="cls-13" cx="352.77" cy="359.3" rx="5.55" ry="5.41" transform="translate(-141.02 260.71) rotate(-34.23)"/><polygon class="cls-13" points="383.52 368.43 399.93 359.8 396.79 378.07 410.07 391.01 391.72 393.68 383.52 410.3 375.31 393.68 356.97 391.01 370.24 378.07 367.11 359.8 383.52 368.43"/><ellipse class="cls-2" cx="167.71" cy="372.79" rx="49.5" ry="50.5"/><ellipse class="cls-13" cx="163.31" cy="339.65" rx="8.95" ry="8.92" transform="translate(-162.79 150.72) rotate(-34.23)"/><ellipse class="cls-13" cx="140.77" cy="359.3" rx="5.55" ry="5.41" transform="translate(-177.75 141.44) rotate(-34.23)"/><polygon class="cls-13" points="171.52 368.43 187.93 359.8 184.79 378.07 198.07 391.01 179.72 393.68 171.52 410.3 163.31 393.68 144.97 391.01 158.24 378.07 155.11 359.8 171.52 368.43"/><g><path class="cls-10" d="m489.01,48.19c-6.87,22.5-13.73,45.01-20.6,67.51-21.92,17.07-43.83,34.15-65.74,51.22l114.85,84.85c8.2-23.55,26.58-87-.33-154.6-7.99-20.08-18.31-36.33-28.18-48.99Z"/><path class="cls-12" d="m366.64,178.67c20.8,2.25,41.59,4.49,62.39,6.74,17.47-17.59,43.04-48.56,54.2-91.77,4.41-17.05,5.69-32.59,5.51-45.76-19.89,23.86-41.65,48.52-65.44,73.7-19.04,20.15-37.99,39.17-56.67,57.09Z"/></g><polygon class="cls-6" points="265.48 433.55 251.97 418.77 278.99 418.77 265.48 433.55"/><g><path class="cls-5" d="m217.22,493.98c8.01,5.57,19.94,11.59,34.28,14.35-12.32-2.3-24.49-7.15-34.28-14.35Z"/><path class="cls-5" d="m270.09,509.81c1.47-.05,2.91-.14,4.33-.26-1.42.14-2.42.2-2.9.22-1.11.05-2.24.07-3.37.08.64,0,1.29-.02,1.94-.04Z"/><path class="cls-5" d="m265.74,509.83c.81.02,1.61.02,2.42.02-.81,0-1.62,0-2.42-.02Z"/><path class="cls-5" d="m284.83,507.94c20.06-4.48,33.77-15.68,39.56-21.1-11.7,13.05-28.08,18.68-39.56,21.1Z"/><path class="cls-5" d="m331.52,476.77c-1.6,2.93-3.41,5.6-5.4,8.03-.09.01-.18.02-.27.02.56-1.04.57-2.35-.16-3.45l-16.08-24.12c-1.67-2.51-5.55-1.71-6.1,1.26l-5.27,28.5-64.92-.03c.35-.63.49-1.39.34-2.19l-5.27-28.5c-.54-2.97-4.42-3.76-6.09-1.25l-16.08,24.12c-.8,1.19-.72,2.63-.02,3.7-.02.26.07.59.27.99-3.43-4.21-6.16-8.91-7.95-14.08-1.22-3.51-6.89-19.81,1-29,10.57-12.32,32.25,3.58,73.5,1,36.04-2.25,51.83-16.4,61.5-7,9.17,8.92,3.56,30.02-3,42Z"/><g><path class="cls-13" d="m325.85,484.82c.09,0,.18,0,.27-.02-.56.7-1.14,1.38-1.73,2.04-5.79,5.42-19.5,16.62-39.56,21.1-.08.02-.17.04-.25.05-3.82.8-7.09,1.25-9.43,1.49-.24.03-.48.05-.73.07-1.42.12-2.86.21-4.33.26-1.47.05-2.92.06-4.35.02-.55-.01-1.09-.02-1.63-.05-.25,0-.49,0-.73-.04-3.39-.17-6.82-.55-10.25-1.12-.55-.09-1.09-.19-1.63-.29-14.34-2.76-26.27-8.78-34.28-14.35-.07-.04-.13-.09-.19-.14-3.97-2.94-7.54-6.28-10.56-9.99-.2-.4-.29-.73-.27-.99-.7-1.07-.78-2.51.02-3.7l16.08-24.12c1.67-2.51,5.55-1.72,6.09,1.25l5.27,28.5c.15.8,0,1.56-.34,2.19l64.92.03,5.27-28.5c.55-2.97,4.43-3.77,6.1-1.26l16.08,24.12c.73,1.1.72,2.41.16,3.45Z"/><path class="cls-13" d="m217.03,493.84c-5.85-4.08-9.58-7.91-10.56-9.99,3.02,3.71,6.59,7.05,10.56,9.99Z"/><path class="cls-13" d="m253.13,508.62c3.43.57,6.86.95,10.25,1.12-3.53-.16-6.95-.55-10.25-1.12Z"/><path class="cls-13" d="m284.58,507.99c-2.67.6-5.46,1.06-8.35,1.37,2.22-.26,5.08-.69,8.35-1.37Z"/><path class="cls-13" d="m275.15,509.48c.36-.03.72-.08,1.08-.12-.38.04-.74.08-1.08.12Z"/><path class="cls-13" d="m326.52,484.77c-.51.52-1.22,1.22-2.13,2.07.59-.66,1.17-1.34,1.73-2.04.13,0,.27-.02.4-.03Z"/></g></g><path class="cls-9" d="m134.91,471.78c-2.06,1.83-4.75,3.94-8.13,5.91-2.38,1.39-5.44,2.92-9.14,4.18-1.89,1.11-4.36.46-5.47-1.43-1.11-1.9-.47-4.36,1.43-5.47,2.61-.89,5.76-2.21,9.14-4.18,2.38-1.39,5.21-3.31,8.13-5.91,1.89-1.11,4.36-.46,5.47,1.43,1.11,1.9.47,4.36-1.43,5.47Z"/><path class="cls-9" d="m127.83,462.13c-2.66.74-6,1.43-9.9,1.71-2.75.2-6.17.22-10.05-.28-2.19.16-4.12-1.51-4.28-3.7s1.51-4.12,3.7-4.28c2.73.35,6.15.56,10.05.28,2.75-.2,6.14-.67,9.9-1.71,2.19-.16,4.12,1.51,4.28,3.7.16,2.19-1.51,4.12-3.7,4.28Z"/><path class="cls-9" d="m443.38,461.37c2.33,1.47,5.33,3.11,8.98,4.51,2.57.98,5.84,1.99,9.7,2.64,2.05.78,4.38-.26,5.16-2.31s-.25-4.38-2.31-5.16c-2.72-.46-6.04-1.24-9.7-2.64-2.57-.98-5.68-2.41-8.98-4.51-2.05-.78-4.38.26-5.16,2.31s.25,4.38,2.31,5.16Z"/><path class="cls-9" d="m448.31,451.44c2.74-.25,6.12-.79,9.87-1.91,2.64-.79,5.84-1.98,9.29-3.82,2.1-.63,3.32-2.88,2.69-4.98-.63-2.11-2.87-3.32-4.98-2.69-2.43,1.3-5.55,2.7-9.29,3.82-2.64.79-5.97,1.55-9.87,1.91-2.1.63-3.32,2.88-2.69,4.98.63,2.11,2.87,3.32,4.98,2.69Z"/><path class="cls-9" d="m459,427.86c-1.54,2.29-3.63,4.99-6.42,7.73-1.96,1.93-4.55,4.17-7.82,6.31-1.56,1.54-4.12,1.52-5.66-.04-1.54-1.57-1.53-4.11.04-5.66,2.31-1.51,5.04-3.56,7.82-6.31,1.96-1.93,4.23-4.49,6.42-7.73,1.56-1.54,4.12-1.52,5.66.04,1.54,1.57,1.53,4.11-.04,5.66Z"/><path class="cls-9" d="m125.53,449.25c-2.63-.81-5.83-2.04-9.26-3.91-2.42-1.32-5.31-3.15-8.3-5.66-1.93-1.05-2.65-3.5-1.6-5.43,1.05-1.93,3.49-2.65,5.43-1.6,2.11,1.77,4.87,3.79,8.3,5.66,2.42,1.32,5.52,2.75,9.26,3.91,1.93,1.05,2.65,3.5,1.6,5.43-1.05,1.93-3.49,2.65-5.43,1.6Z"/></svg>