<?xml version="1.0" encoding="UTF-8"?><svg id="Win" xmlns="http://www.w3.org/2000/svg" width="590" height="790" xmlns:xlink="http://www.w3.org/1999/xlink" viewBox="0 0 590 790"><defs><style>.cls-1{fill:url(#linear-gradient-2);}.cls-2{fill:#4d4d4d;}.cls-3{fill:#333;}.cls-4{fill:url(#radial-gradient);}.cls-5{fill:#918589;}.cls-6{fill:#ffe5ee;}.cls-7{fill:url(#radial-gradient-2);}.cls-8{fill:url(#radial-gradient-3);}.cls-9{fill:#999;}.cls-10{fill:url(#linear-gradient-3);}.cls-11{fill:url(#linear-gradient);}.cls-12{fill:url(#linear-gradient-4);}.cls-13{fill:#f2f2f2;}</style><linearGradient id="linear-gradient" x1="1689.88" y1="4894.93" x2="1844.23" y2="4894.93" gradientTransform="translate(-3012.92 4276.36) rotate(-123.25)" gradientUnits="userSpaceOnUse"><stop offset="0" stop-color="#333"/><stop offset=".58" stop-color="#b3b3b3"/><stop offset=".77" stop-color="#e6e6e6"/></linearGradient><linearGradient id="linear-gradient-2" x1="-10392.79" y1="4958.98" x2="-10216.46" y2="4958.98" gradientTransform="translate(1674.73 11424.92) rotate(56.75) scale(1 -1)" gradientUnits="userSpaceOnUse"><stop offset=".32" stop-color="#1a1a1a"/><stop offset=".58" stop-color="#333"/></linearGradient><radialGradient id="radial-gradient" cx="159.76" cy="4899.44" fx="159.76" fy="4899.44" r="61.97" gradientTransform="translate(0 5247.95) scale(1 -1)" gradientUnits="userSpaceOnUse"><stop offset=".26" stop-color="#fef8a6"/><stop offset="1" stop-color="#fdd089"/></radialGradient><radialGradient id="radial-gradient-2" cx="370.67" cy="4901.21" fx="370.67" fy="4901.21" r="61.97" xlink:href="#radial-gradient"/><radialGradient id="radial-gradient-3" cx="281.69" cy="5037.15" fx="281.69" fy="5037.15" r="61.97" xlink:href="#radial-gradient"/><linearGradient id="linear-gradient-3" x1="2875.86" y1="3085.13" x2="3030.47" y2="3085.13" gradientTransform="translate(1455.95 4276.36) rotate(-56.75) scale(1 -1)" xlink:href="#linear-gradient"/><linearGradient id="linear-gradient-4" x1="-11579.02" y1="3149.8" x2="-11402.7" y2="3149.8" gradientTransform="translate(-3231.69 11424.92) rotate(123.25)" xlink:href="#linear-gradient-2"/></defs><path class="cls-3" d="M526.66,304.77c1.03-21.48,.75-90.52-49-140-46.88-46.62-109.02-47.35-165-48-42.92-.5-95.01-1.11-148,32-11.88,7.42-95.19,61.43-100.95,160.93-1.39,24.06-.35,87.05,44.95,134.07,52.44,54.43,128.15,50.04,183.02,46.86,44.74-2.59,149.56-8.67,203.98-88.86,27.79-40.96,30.35-83.46,31-97Z"/><g><path class="cls-11" d="M122.29,15.07c6.87,22.5,13.73,45.01,20.6,67.51,21.92,17.07,43.83,34.15,65.74,51.22-37.99,27.99-75.98,55.97-113.97,83.96-8.22-22.97-27.24-86.24-.55-153.71,7.96-20.14,18.31-36.38,28.18-48.99Z"/><path class="cls-1" d="M244.66,145.55c-20.8,2.25-41.59,4.49-62.39,6.74-17.47-17.59-43.04-48.56-54.2-91.77-4.41-17.05-5.69-32.59-5.51-45.76,19.89,23.86,41.65,48.52,65.44,73.7,19.04,20.15,37.99,39.17,56.67,57.09Z"/></g><circle class="cls-4" cx="159.76" cy="348.5" r="61.97"/><circle class="cls-7" cx="370.67" cy="346.73" r="61.97"/><circle class="cls-8" cx="281.69" cy="210.79" r="61.97"/><ellipse class="cls-2" cx="286.16" cy="205.27" rx="49.5" ry="50.5"/><ellipse class="cls-13" cx="281.75" cy="172.12" rx="8.95" ry="8.92" transform="translate(-48.02 188.33) rotate(-34.23)"/><ellipse class="cls-13" cx="259.21" cy="191.78" rx="5.55" ry="5.41" transform="translate(-62.98 179.06) rotate(-34.23)"/><ellipse class="cls-2" cx="374.85" cy="339.79" rx="49.5" ry="50.5"/><ellipse class="cls-13" cx="370.44" cy="306.64" rx="8.95" ry="8.92" transform="translate(-108.33 261.53) rotate(-34.23)"/><ellipse class="cls-13" cx="347.91" cy="326.3" rx="5.55" ry="5.41" transform="translate(-123.29 252.26) rotate(-34.23)"/><ellipse class="cls-2" cx="162.85" cy="339.79" rx="49.5" ry="50.5"/><ellipse class="cls-13" cx="158.44" cy="306.64" rx="8.95" ry="8.92" transform="translate(-145.06 142.27) rotate(-34.23)"/><ellipse class="cls-13" cx="135.91" cy="326.3" rx="5.55" ry="5.41" transform="translate(-160.02 132.99) rotate(-34.23)"/><g><path class="cls-10" d="M484.15,15.18c-6.87,22.5-13.73,45.01-20.6,67.51-21.92,17.07-43.83,34.15-65.74,51.22l114.85,84.85c8.2-23.55,26.58-87-.33-154.6-7.99-20.08-18.31-36.33-28.18-48.99Z"/><path class="cls-12" d="M361.78,145.67c20.8,2.25,41.59,4.49,62.39,6.74,17.47-17.59,43.04-48.56,54.2-91.77,4.41-17.05,5.69-32.59,5.51-45.76-19.89,23.86-41.65,48.52-65.44,73.7-19.04,20.15-37.99,39.17-56.67,57.09Z"/></g><path class="cls-9" d="M130.05,438.77c-2.06,1.83-4.75,3.94-8.13,5.91-2.38,1.39-5.44,2.92-9.14,4.18-1.89,1.11-4.36,.46-5.47-1.43-1.11-1.9-.47-4.36,1.43-5.47,2.61-.89,5.76-2.21,9.14-4.18,2.38-1.39,5.21-3.31,8.13-5.91,1.89-1.11,4.36-.46,5.47,1.43s.47,4.36-1.43,5.47Z"/><path class="cls-9" d="M122.96,429.13c-2.66,.74-6,1.43-9.9,1.71-2.75,.2-6.17,.22-10.05-.28-2.19,.16-4.12-1.51-4.28-3.7-.16-2.19,1.51-4.12,3.7-4.28,2.73,.35,6.15,.56,10.05,.28,2.75-.2,6.14-.67,9.9-1.71,2.19-.16,4.12,1.51,4.28,3.7s-1.51,4.12-3.7,4.28Z"/><path class="cls-9" d="M438.52,428.36c2.33,1.47,5.33,3.11,8.98,4.51,2.57,.98,5.84,1.99,9.7,2.64,2.05,.78,4.38-.26,5.16-2.31s-.25-4.38-2.31-5.16c-2.72-.46-6.04-1.24-9.7-2.64-2.57-.98-5.68-2.41-8.98-4.51-2.05-.78-4.38,.26-5.16,2.31s.25,4.38,2.31,5.16Z"/><path class="cls-9" d="M443.45,418.44c2.74-.25,6.12-.79,9.87-1.91,2.64-.79,5.84-1.98,9.29-3.82,2.1-.63,3.32-2.88,2.69-4.98s-2.87-3.32-4.98-2.69c-2.43,1.3-5.55,2.7-9.29,3.82-2.64,.79-5.97,1.55-9.87,1.91-2.1,.63-3.32,2.88-2.69,4.98s2.87,3.32,4.98,2.69Z"/><path class="cls-9" d="M454.14,394.86c-1.54,2.29-3.63,4.99-6.42,7.73-1.96,1.93-4.55,4.17-7.82,6.31-1.56,1.54-4.12,1.52-5.66-.04-1.54-1.57-1.53-4.11,.04-5.66,2.31-1.51,5.04-3.56,7.82-6.31,1.96-1.93,4.23-4.49,6.42-7.73,1.56-1.54,4.12-1.52,5.66,.04,1.54,1.57,1.53,4.11-.04,5.66Z"/><path class="cls-9" d="M120.67,416.24c-2.63-.81-5.83-2.04-9.26-3.91-2.42-1.32-5.31-3.15-8.3-5.66-1.93-1.05-2.65-3.5-1.6-5.43,1.05-1.93,3.49-2.65,5.43-1.6,2.11,1.77,4.87,3.79,8.3,5.66,2.42,1.32,5.52,2.75,9.26,3.91,1.93,1.05,2.65,3.5,1.6,5.43s-3.49,2.65-5.43,1.6Z"/><path class="cls-5" d="M261.15,417.31c-1.11,3.32-2.53,7.47-6,12-1.77,2.32-6.19,7.95-14,11-2.15,.84-14.23,5.56-24-1-8.12-5.46-10.48-15.92-9-19,.22-.45,.82-1.69,2-2,1.2-.32,2.37,.52,2.86,.88,3.92,2.88,5.03,9.99,4.62,10.12-.4,.12-2.47-6-2.48-6,0,0,.9,5.74,5,9,5.16,4.1,11.65,2.56,14,2,6.28-1.5,9.98-5.71,12-8,.77-.88,4.77-5.51,7-13,2.25-7.56,1.02-12.39,4.55-14.52,1.11-.67,3.07-1.3,4.45-.48,3.66,2.16,.75,13.75-1,19Z"/><path class="cls-5" d="M259.09,416.9c1.11,3.32,2.53,7.47,6,12,1.77,2.32,6.19,7.95,14,11,2.15,.84,14.23,5.56,24-1,8.12-5.46,10.48-15.92,9-19-.22-.45-.82-1.69-2-2-1.41-.37-2.77,.8-3,1-1.51,1.3-1.84,3.21-2,4-.23,1.46-1.14,5.93-5,9-5.16,4.1-11.65,2.56-14,2-6.28-1.5-9.98-5.71-12-8-.77-.88-4.77-5.51-7-13-2.25-7.56-1.02-12.39-4.55-14.52-1.11-.67-3.07-1.3-4.45-.48-3.66,2.16-.75,13.75,1,19Z"/><polygon class="cls-6" points="260.62 405.09 247.11 390.31 274.13 390.31 260.62 405.09"/></svg>